<?xml version="1.0" encoding="UTF-8"?>
<svg version="1.1" xmlns="http://www.w3.org/2000/svg" width="782" height="776">
<path d="M0 0 C258.06 0 516.12 0 782 0 C782 256.08 782 512.16 782 776 C523.94 776 265.88 776 0 776 C0 519.92 0 263.84 0 0 Z " fill="#DB2F20" transform="translate(0,0)"/>
<path d="M0 0 C9.25367647 5.71707024 13.75745767 13.25710021 17.0625 23.5 C18.23767359 29.58433259 18.28334265 35.50978751 18.3125 41.6875 C18.333125 42.76064453 18.35375 43.83378906 18.375 44.93945312 C18.43299006 56.9216488 15.91231864 68.51723093 7.3125 77.3125 C-0.04001638 82.2613091 -7.0157949 84.64318823 -15.89453125 84.59765625 C-16.89718018 84.59515869 -17.8998291 84.59266113 -18.93286133 84.59008789 C-20.19251709 84.58098389 -21.45217285 84.57187988 -22.75 84.5625 C-26.771875 84.541875 -30.79375 84.52125 -34.9375 84.5 C-34.9375 93.08 -34.9375 101.66 -34.9375 110.5 C-51.7675 111.49 -51.7675 111.49 -68.9375 112.5 C-68.9375 75.21 -68.9375 37.92 -68.9375 -0.5 C-62.9975 -0.5 -57.0575 -0.5 -50.9375 -0.5 C-49.2875 1.81 -47.6375 4.12 -45.9375 6.5 C-45.380625 6.10167969 -44.82375 5.70335937 -44.25 5.29296875 C-43.486875 4.76316406 -42.72375 4.23335938 -41.9375 3.6875 C-41.195 3.16542969 -40.4525 2.64335937 -39.6875 2.10546875 C-28.37068343 -4.50136593 -11.98191898 -5.57333874 0 0 Z " fill="#FEFDFD" transform="translate(711.9375,272.5)"/>
<path d="M0 0 C0 37.29 0 74.58 0 113 C-5.94 113 -11.88 113 -18 113 C-19.65 111.35 -21.3 109.7 -23 108 C-26.84129079 108.05798175 -29.74491164 110.71305588 -32.8046875 112.84375 C-38.2449365 115.70907687 -44.80133923 115.24516063 -50.8125 115.3125 C-52.08963867 115.35600586 -52.08963867 115.35600586 -53.39257812 115.40039062 C-61.67666535 115.48241129 -68.77146183 112.59339546 -75.37109375 107.6015625 C-84.82380229 98.30753252 -87.04236923 84.86420182 -87.29248047 72.22119141 C-87.38589761 58.94000818 -86.64530429 47.12636685 -77 37 C-70.88164535 30.81672912 -63.71032962 28.22475904 -55.11572266 27.88647461 C-54.1416748 27.89171143 -53.16762695 27.89694824 -52.1640625 27.90234375 C-51.2045166 27.90484131 -50.2449707 27.90733887 -49.25634766 27.90991211 C-48.05800293 27.91901611 -46.8596582 27.92812012 -45.625 27.9375 C-41.78875 27.958125 -37.9525 27.97875 -34 28 C-34 19.42 -34 10.84 -34 2 C-29.96161317 1.71355331 -25.92317225 1.42817971 -21.88452148 1.14550781 C-20.51208158 1.04912815 -19.13968488 0.9521311 -17.76733398 0.85449219 C-15.78901598 0.71385007 -13.8105249 0.57564918 -11.83203125 0.4375 C-10.64327393 0.35371094 -9.4545166 0.26992187 -8.22973633 0.18359375 C-5.49023091 0.02786708 -2.74392798 0 0 0 Z " fill="#FEFDFD" transform="translate(435,244)"/>
<path d="M0 0 C10.168125 -0.0825 20.33625 -0.165 30.8125 -0.25 C34.00139893 -0.28641602 37.19029785 -0.32283203 40.47583008 -0.36035156 C43.03205697 -0.37204512 45.58829138 -0.38223536 48.14453125 -0.390625 C49.44853882 -0.41108887 50.75254639 -0.43155273 52.09606934 -0.45263672 C63.47265745 -0.45694073 73.66485839 1.79776498 82 10 C88.8911147 18.3485045 90.53335505 28.40320657 90.375 38.9375 C90.36194824 40.38600342 90.36194824 40.38600342 90.34863281 41.86376953 C90.20962463 48.60794512 89.60212158 54.71435567 87 61 C86.73316406 61.71929687 86.46632813 62.43859375 86.19140625 63.1796875 C83.1400286 70.36737708 77.68736292 74.89098802 70.734375 78.1875 C63.63833637 80.91604131 56.3410298 80.4317637 48.875 80.25 C47.42710823 80.22989039 45.97918927 80.21164755 44.53125 80.1953125 C41.01959508 80.15513338 37.51179722 80.07680723 34 80 C34 88.58 34 97.16 34 106 C22.78 106 11.56 106 0 106 C0 71.02 0 36.04 0 0 Z " fill="#FEFDFD" transform="translate(227,422)"/>
<path d="M0 0 C1.30614258 0.0012085 1.30614258 0.0012085 2.63867188 0.00244141 C14.75741579 0.11530772 26.58483922 2.06624032 38.5 4.1875 C37.16666667 13.52083333 35.83333333 22.85416667 34.5 32.1875 C33.89373779 32.12183838 33.28747559 32.05617676 32.6628418 31.98852539 C24.22212341 31.14204392 15.78618654 30.8648675 7.3125 30.625 C5.86913147 30.58168434 4.42577197 30.53806654 2.98242188 30.49414062 C-0.51162173 30.38845142 -4.00576898 30.28682418 -7.5 30.1875 C-7.005 34.1475 -7.005 34.1475 -6.5 38.1875 C-5.80551758 38.25219482 -5.11103516 38.31688965 -4.39550781 38.38354492 C21.12671082 40.85063625 21.12671082 40.85063625 30.5 46.1875 C31.61375 46.744375 32.7275 47.30125 33.875 47.875 C39.17775696 52.54647637 43.12191182 59.18642451 43.66113281 66.31884766 C43.92849096 80.85256098 43.76435265 93.17184257 33.4375 104.4375 C24.35231368 109.84995142 14.18308702 111.32835821 3.796875 111.42578125 C2.96021301 111.433853 2.12355103 111.44192474 1.26153564 111.45024109 C-0.51019251 111.46403226 -2.28194668 111.47477648 -4.05371094 111.48266602 C-5.8298343 111.49408441 -7.60592618 111.5143713 -9.38183594 111.54418945 C-21.98574003 111.75519757 -33.31968954 110.46802654 -45.5 107.1875 C-44.49103965 97.78396391 -44.49103965 97.78396391 -43.74609375 93.15234375 C-43.61396484 92.32412109 -43.48183594 91.49589844 -43.34570312 90.64257812 C-43.21099609 89.81177734 -43.07628906 88.98097656 -42.9375 88.125 C-42.79892578 87.25939453 -42.66035156 86.39378906 -42.51757812 85.50195312 C-42.18029303 83.39682889 -41.84042164 81.2921193 -41.5 79.1875 C-34.02122163 80.09011118 -34.02122163 80.09011118 -30.74169922 80.70288086 C-26.9115483 81.27547083 -23.12208561 81.41599397 -19.2578125 81.50390625 C-18.48944061 81.52468735 -17.72106873 81.54546844 -16.92941284 81.56687927 C-14.49469233 81.63183469 -12.05987153 81.69100638 -9.625 81.75 C-7.9661358 81.7932367 -6.30728144 81.83685257 -4.6484375 81.88085938 C-0.59905896 81.98746003 3.45041963 82.0888767 7.5 82.1875 C7.005 78.2275 7.005 78.2275 6.5 74.1875 C5.29085937 74.07792969 4.08171875 73.96835937 2.8359375 73.85546875 C-30.12985017 70.73228739 -30.12985017 70.73228739 -38.15234375 61.23046875 C-42.88849698 54.05073501 -43.82201189 47.37489316 -43.75 38.9375 C-43.75773437 38.04675781 -43.76546875 37.15601563 -43.7734375 36.23828125 C-43.74285964 25.70420752 -42.48083477 16.18192758 -34.78125 8.46484375 C-25.1910067 0.46642362 -11.97824659 -0.01170665 0 0 Z " fill="#FEFDFD" transform="translate(99.5,247.8125)"/>
<path d="M0 0 C1.26714844 -0.01611328 2.53429687 -0.03222656 3.83984375 -0.04882812 C15.47991114 -0.05482198 25.44075626 1.77942455 35.4375 7.875 C41.66437421 14.10187421 43.40114487 20.93316637 43.45508099 29.5991497 C43.44112374 31.7150698 43.40268549 33.82972637 43.36328125 35.9453125 C43.35393572 37.43316449 43.34682785 38.92103204 43.34184265 40.40890503 C43.32290903 44.29231545 43.27393066 48.17476502 43.21832275 52.05780029 C43.16683199 56.03319304 43.14426553 60.00874367 43.11914062 63.984375 C43.06579464 71.76085091 42.98065293 79.53653995 42.875 87.3125 C39.98076056 87.42082241 37.0906025 87.49995347 34.1953125 87.5625 C33.37973877 87.59601563 32.56416504 87.62953125 31.72387695 87.6640625 C27.58660638 87.73109676 25.44074572 87.66199543 21.83984375 85.4375 C19.93062777 83.49616637 18.33879862 81.60544329 16.875 79.3125 C16.25625 79.704375 15.6375 80.09625 15 80.5 C12.35940217 82.03154674 9.71262519 83.47733641 7 84.875 C6.19820312 85.28878906 5.39640625 85.70257812 4.5703125 86.12890625 C-5.35768381 90.48859159 -17.92162705 91.21303656 -28.44140625 88.4375 C-33.74419504 85.97635833 -38.27928967 82.4779808 -41.125 77.3125 C-44.80800644 67.14572176 -45.60711405 57.34541722 -41.125 47.3125 C-35.7335369 38.94039064 -28.28082629 34.90042075 -18.8125 32.5 C-9.65139892 30.71001538 -0.41801927 31.06007392 8.875 31.3125 C8.875 29.3325 8.875 27.3525 8.875 25.3125 C-5.34662183 25.7303592 -19.06194541 27.11215812 -33.125 29.3125 C-34.445 21.3925 -35.765 13.4725 -37.125 5.3125 C-24.79938858 0.69039572 -13.07677969 -0.03346157 0 0 Z " fill="#FEFDFD" transform="translate(516.125,440.6875)"/>
<path d="M0 0 C1.26714844 -0.01611328 2.53429687 -0.03222656 3.83984375 -0.04882812 C15.47991114 -0.05482198 25.44075626 1.77942455 35.4375 7.875 C41.66437421 14.10187421 43.40114487 20.93316637 43.45508099 29.5991497 C43.44112374 31.7150698 43.40268549 33.82972637 43.36328125 35.9453125 C43.35393572 37.43316449 43.34682785 38.92103204 43.34184265 40.40890503 C43.32290903 44.29231545 43.27393066 48.17476502 43.21832275 52.05780029 C43.16683199 56.03319304 43.14426553 60.00874367 43.11914062 63.984375 C43.06579464 71.76085091 42.98065293 79.53653995 42.875 87.3125 C39.98076056 87.42082241 37.0906025 87.49995347 34.1953125 87.5625 C33.37973877 87.59601563 32.56416504 87.62953125 31.72387695 87.6640625 C27.58660638 87.73109676 25.44074572 87.66199543 21.83984375 85.4375 C19.93062777 83.49616637 18.33879862 81.60544329 16.875 79.3125 C16.25625 79.704375 15.6375 80.09625 15 80.5 C12.35940217 82.03154674 9.71262519 83.47733641 7 84.875 C6.19820312 85.28878906 5.39640625 85.70257813 4.5703125 86.12890625 C-5.35768381 90.48859159 -17.92162705 91.21303656 -28.44140625 88.4375 C-33.74419504 85.97635833 -38.27928967 82.4779808 -41.125 77.3125 C-44.80800644 67.14572176 -45.60711405 57.34541722 -41.125 47.3125 C-35.7335369 38.94039064 -28.28082629 34.90042075 -18.8125 32.5 C-9.65139892 30.71001538 -0.41801927 31.06007392 8.875 31.3125 C8.875 29.3325 8.875 27.3525 8.875 25.3125 C-5.34662183 25.7303592 -19.06194541 27.11215812 -33.125 29.3125 C-34.445 21.3925 -35.765 13.4725 -37.125 5.3125 C-24.79938858 0.69039572 -13.07677969 -0.03346157 0 0 Z " fill="#FEFDFD" transform="translate(193.125,269.6875)"/>
<path d="M0 0 C1.38063854 -0.01146763 2.76123459 -0.03183636 4.14160156 -0.06152344 C14.83446229 -0.29069275 24.95372964 0.52151645 33.96191406 6.85766602 C40.17093802 12.97560405 41.32691692 21.13582867 41.39941406 29.48266602 C41.29392904 36.72231402 40.04514026 41.71201696 36.39941406 47.98266602 C25.50391532 58.31942123 9.56372528 58.70403231 -4.59277344 58.40063477 C-5.72972656 58.36583008 -6.86667969 58.33102539 -8.03808594 58.29516602 C-8.03808594 60.27516602 -8.03808594 62.25516602 -8.03808594 64.29516602 C6.26669972 63.75321003 19.99397406 62.60959246 33.96191406 59.29516602 C34.47193956 61.93940534 34.97005342 64.58503778 35.46191406 67.23266602 C35.605 67.96807617 35.74808594 68.70348633 35.89550781 69.46118164 C36.87780952 74.81706476 37.09168871 79.85003822 36.96191406 85.29516602 C25.09039205 88.42366123 13.68807873 89.70238718 1.39941406 89.73266602 C-0.48898193 89.74716797 -0.48898193 89.74716797 -2.41552734 89.76196289 C-15.0798803 89.64797533 -25.12298011 87.26730286 -34.78808594 78.92016602 C-43.51921776 68.73384556 -45.39997673 57.11941327 -45.47558594 44.10766602 C-45.48557617 43.09841064 -45.49556641 42.08915527 -45.50585938 41.04931641 C-45.37737146 29.82956788 -42.20695978 17.46403986 -34.03808594 9.29516602 C-22.83771423 1.66978562 -13.3615956 0.07695324 0 0 Z " fill="#FEFDFD" transform="translate(589.0380859375,269.704833984375)"/>
<path d="M0 0 C1.38063854 -0.01146763 2.76123459 -0.03183636 4.14160156 -0.06152344 C14.83446229 -0.29069275 24.95372964 0.52151645 33.96191406 6.85766602 C40.17093802 12.97560405 41.32691692 21.13582867 41.39941406 29.48266602 C41.29392904 36.72231402 40.04514026 41.71201696 36.39941406 47.98266602 C25.50391532 58.31942123 9.56372528 58.70403231 -4.59277344 58.40063477 C-5.72972656 58.36583008 -6.86667969 58.33102539 -8.03808594 58.29516602 C-8.03808594 60.27516602 -8.03808594 62.25516602 -8.03808594 64.29516602 C6.26669972 63.75321003 19.99397406 62.60959246 33.96191406 59.29516602 C34.47193956 61.93940534 34.97005342 64.58503778 35.46191406 67.23266602 C35.605 67.96807617 35.74808594 68.70348633 35.89550781 69.46118164 C36.87780952 74.81706476 37.09168871 79.85003822 36.96191406 85.29516602 C25.09039205 88.42366123 13.68807873 89.70238718 1.39941406 89.73266602 C-0.48898193 89.74716797 -0.48898193 89.74716797 -2.41552734 89.76196289 C-15.0798803 89.64797533 -25.12298011 87.26730286 -34.78808594 78.92016602 C-43.51921776 68.73384556 -45.39997673 57.11941327 -45.47558594 44.10766602 C-45.48557617 43.09841064 -45.49556641 42.08915527 -45.50585938 41.04931641 C-45.37737146 29.82956788 -42.20695978 17.46403986 -34.03808594 9.29516602 C-22.83771423 1.66978562 -13.3615956 0.07695324 0 0 Z " fill="#FEFDFD" transform="translate(494.0380859375,269.704833984375)"/>
<path d="M0 0 C0.96421875 -0.02900391 1.9284375 -0.05800781 2.921875 -0.08789062 C10.34318086 -0.15343205 15.67990363 1.16241496 21.30859375 6.12890625 C21.76363281 6.70511719 22.21867187 7.28132813 22.6875 7.875 C23.16058594 8.45378906 23.63367188 9.03257812 24.12109375 9.62890625 C26.64824785 13.39777621 26.37109288 16.95753411 26.36352539 21.35424805 C26.36367142 22.06669678 26.36381744 22.77914551 26.3639679 23.51318359 C26.36327151 25.866893 26.35549192 28.22052317 26.34765625 30.57421875 C26.3457911 32.20660865 26.34436765 33.83899911 26.34336853 35.47138977 C26.33955101 39.76711575 26.32972724 44.06280789 26.31866455 48.35852051 C26.30663516 53.51305696 26.30204454 58.66760472 26.29621124 63.82215118 C26.2865151 71.65229098 26.26735319 79.48235656 26.25 87.3125 C15.03 87.3125 3.81 87.3125 -7.75 87.3125 C-7.75 67.8425 -7.75 48.3725 -7.75 28.3125 C-19.27043682 27.9716805 -19.27043682 27.9716805 -23.75 33.3125 C-24.36137955 35.88321296 -24.36137955 35.88321296 -24.29589844 38.72363281 C-24.31561707 39.80445129 -24.33533569 40.88526978 -24.35565186 41.99884033 C-24.35688049 43.15937927 -24.35810913 44.31991821 -24.359375 45.515625 C-24.37591125 46.70855164 -24.39244751 47.90147827 -24.40948486 49.1305542 C-24.4580753 52.9412546 -24.47936138 56.7515556 -24.5 60.5625 C-24.52815027 63.14585355 -24.55807635 65.7291884 -24.58984375 68.3125 C-24.66718107 74.64601907 -24.70760217 80.97826468 -24.75 87.3125 C-35.97 87.3125 -47.19 87.3125 -58.75 87.3125 C-58.75 59.2625 -58.75 31.2125 -58.75 2.3125 C-40.75 2.3125 -40.75 2.3125 -36.125 5.8125 C-34.6484375 7.78125 -34.6484375 7.78125 -33.75 9.3125 C-28.44922993 7.23041385 -23.24614602 4.93034815 -18.02734375 2.65234375 C-11.93850585 0.1631049 -6.52424843 0.06438403 0 0 Z " fill="#FEFEFE" transform="translate(309.75,269.6875)"/>
<path d="M0 0 C11.22 0 22.44 0 34 0 C34 20.46 34 40.92 34 62 C44.92898075 62.06334169 44.92898075 62.06334169 49 59 C49.4779392 56.41783979 49.4779392 56.41783979 49.43237305 53.35693359 C49.45216721 52.17586029 49.47196136 50.99478699 49.49235535 49.77792358 C49.50194023 47.85757797 49.50194023 47.85757797 49.51171875 45.8984375 C49.52966995 44.59170074 49.54762115 43.28496399 49.56611633 41.93862915 C49.61369103 38.46330801 49.6434515 34.98805211 49.66955566 31.51251221 C49.69932393 27.96654458 49.74570454 24.42079747 49.79101562 20.875 C49.87870881 13.91664793 49.93858608 6.95883288 50 0 C61.22 0 72.44 0 84 0 C84 28.05 84 56.1 84 85 C67 85 67 85 61.4375 81 C59.37109375 78.75 59.37109375 78.75 58 77 C57.154375 77.5775 56.30875 78.155 55.4375 78.75 C53.17054795 80.2506584 50.89198739 81.7230913 48.5625 83.125 C48.04816406 83.43695312 47.53382813 83.74890625 47.00390625 84.0703125 C37.22535877 88.60694856 23.8471638 88.87444982 13.546875 86.0546875 C6.9118051 82.89607638 3.4727653 78.66614316 0.63583946 71.91151237 C-0.38132649 68.85362524 -0.35796891 65.98560262 -0.34057617 62.77954102 C-0.34101425 62.09576889 -0.34145233 61.41199677 -0.34190369 60.70750427 C-0.33983239 58.47266958 -0.31658188 56.23860804 -0.29296875 54.00390625 C-0.28736685 52.44449778 -0.28309956 50.88508399 -0.28010559 49.32566833 C-0.26870349 45.24029723 -0.2392769 41.15525094 -0.20599365 37.07000732 C-0.1697677 32.15822308 -0.1561095 27.24632964 -0.13863373 22.33444977 C-0.10963616 14.88940793 -0.05211747 7.44507746 0 0 Z " fill="#FEFDFD" transform="translate(326,443)"/>
<path d="M0 0 C0.33 29.04 0.66 58.08 1 88 C3.64 88.33 6.28 88.66 9 89 C8.67 97.58 8.34 106.16 8 115 C-21.08023308 115.44060959 -21.08023308 115.44060959 -30 108 C-33.14092669 104.55511266 -34.12610682 101.4982801 -34.12025452 96.8808136 C-34.12162918 96.04368835 -34.12300385 95.20656311 -34.12442017 94.34407043 C-34.12082489 93.42913315 -34.11722961 92.51419586 -34.11352539 91.5715332 C-34.11367142 90.60549164 -34.11381744 89.63945007 -34.1139679 88.64413452 C-34.11327041 85.44632737 -34.10548562 82.24857824 -34.09765625 79.05078125 C-34.09579149 76.8354648 -34.09436786 74.62014794 -34.09336853 72.40483093 C-34.08954793 66.57033146 -34.07972151 60.73585683 -34.06866455 54.90136719 C-34.05844063 48.94922217 -34.0538688 42.99707314 -34.04882812 37.04492188 C-34.03809886 25.36327033 -34.02102789 13.68163723 -34 2 C-29.96166219 1.71293789 -25.92316904 1.42817949 -21.88452148 1.14550781 C-20.51208158 1.04912815 -19.13968488 0.9521311 -17.76733398 0.85449219 C-15.78901598 0.71385007 -13.8105249 0.57564918 -11.83203125 0.4375 C-10.64327393 0.35371094 -9.4545166 0.26992188 -8.22973633 0.18359375 C-5.49023091 0.02786708 -2.74392798 0 0 0 Z " fill="#FEFCFC" transform="translate(460,415)"/>
<path d="M0 0 C1.75570312 0.06767578 1.75570312 0.06767578 3.546875 0.13671875 C4.88492188 0.22373047 4.88492188 0.22373047 6.25 0.3125 C6.29942899 5.24209122 6.33573318 10.17153825 6.35986328 15.10131836 C6.36992237 16.77842725 6.38357122 18.45551861 6.40087891 20.13256836 C6.42513152 22.54285002 6.4364839 24.95289986 6.4453125 27.36328125 C6.45563507 28.11337967 6.46595764 28.86347809 6.47659302 29.63630676 C6.477408 33.41550779 6.40057067 35.08664399 4.25 38.3125 C0.96480525 39.40756492 -1.48663415 39.41210608 -4.9375 39.375 C-6.56751953 39.36146484 -6.56751953 39.36146484 -8.23046875 39.34765625 C-9.06191406 39.33605469 -9.89335938 39.32445312 -10.75 39.3125 C-10.84913574 34.56199181 -10.92159264 29.81209024 -10.96972656 25.06079102 C-10.98979892 23.44577542 -11.0170633 21.83083211 -11.05175781 20.21606445 C-11.10047215 17.88995499 -11.12301154 15.56480907 -11.140625 13.23828125 C-11.16127014 12.52037918 -11.18191528 11.80247711 -11.20318604 11.06282043 C-11.2047221 7.60387533 -10.7956181 5.3972104 -9.14746094 2.33666992 C-5.95776589 -0.35638116 -4.1168281 -0.20584141 0 0 Z " fill="#DB3527" transform="translate(687.75,294.6875)"/>
<path d="M0 0 C1.76923828 0.04060547 1.76923828 0.04060547 3.57421875 0.08203125 C4.47785156 0.11683594 5.38148438 0.15164063 6.3125 0.1875 C6.36200115 4.95636487 6.39826738 9.72507959 6.42236328 14.49414062 C6.43241023 16.11591192 6.44605015 17.73766516 6.46337891 19.359375 C6.48768493 21.69275374 6.49899613 24.0258926 6.5078125 26.359375 C6.51813507 27.08243835 6.52845764 27.80550171 6.53909302 28.55047607 C6.54057045 35.20501434 6.54057045 35.20501434 4.3125 38.1875 C1.16319107 39.23726964 -1.07564456 39.28881595 -4.375 39.25 C-5.36886719 39.24097656 -6.36273438 39.23195313 -7.38671875 39.22265625 C-8.52560547 39.20525391 -8.52560547 39.20525391 -9.6875 39.1875 C-9.76163521 34.11551112 -9.81609451 29.04383732 -9.85229492 23.97143555 C-9.86738516 22.24579373 -9.88785975 20.52019028 -9.91381836 18.79467773 C-9.95019209 16.31484512 -9.96722359 13.83551936 -9.98046875 11.35546875 C-9.99595261 10.58349655 -10.01143646 9.81152435 -10.02738953 9.01615906 C-10.02830566 6.10303114 -10.01123496 3.77556703 -8.5871582 1.1887207 C-5.70516724 -0.33024151 -3.22642952 -0.09583454 0 0 Z " fill="#DB2F20" transform="translate(394.6875,294.8125)"/>
<path d="M0 0 C14.625 0 14.625 0 19 3 C19.14510162 6.27036728 19.23399373 9.53991007 19.3125 12.8125 C19.35439453 13.74126953 19.39628906 14.67003906 19.43945312 15.62695312 C19.48534585 18.16940993 19.45294173 20.49744655 19 23 C16.21180137 25.87268949 14.41091414 25.96609619 10.44921875 26.29296875 C9.20785156 26.25816406 7.96648437 26.22335937 6.6875 26.1875 C3.3771875 26.0946875 3.3771875 26.0946875 0 26 C0 17.42 0 8.84 0 0 Z " fill="#DC382A" transform="translate(261,449)"/>
<path d="M0 0 C1.26328125 0.02707031 2.5265625 0.05414063 3.828125 0.08203125 C4.79234375 0.11683594 5.7565625 0.15164063 6.75 0.1875 C6.80422947 1.6245809 6.84289723 3.06225462 6.875 4.5 C6.89820313 5.30050781 6.92140625 6.10101563 6.9453125 6.92578125 C6.75 9.1875 6.75 9.1875 4.75 12.1875 C1.32767028 13.32827657 -1.33673217 13.28565117 -4.9375 13.25 C-6.70673828 13.23646484 -6.70673828 13.23646484 -8.51171875 13.22265625 C-9.41535156 13.21105469 -10.31898438 13.19945312 -11.25 13.1875 C-11.35824843 11.5848218 -11.43570645 9.98004252 -11.5 8.375 C-11.54640625 7.48167969 -11.5928125 6.58835937 -11.640625 5.66796875 C-11.25 3.1875 -11.25 3.1875 -9.6875 1.375 C-6.34814436 -0.25186557 -3.69465231 -0.10262923 0 0 Z " fill="#DB3123" transform="translate(518.25,491.8125)"/>
<path d="M0 0 C1.26328125 0.02707031 2.5265625 0.05414063 3.828125 0.08203125 C4.79234375 0.11683594 5.7565625 0.15164063 6.75 0.1875 C6.80422947 1.6245809 6.84289723 3.06225462 6.875 4.5 C6.89820313 5.30050781 6.92140625 6.10101563 6.9453125 6.92578125 C6.75 9.1875 6.75 9.1875 4.75 12.1875 C1.32767028 13.32827657 -1.33673217 13.28565117 -4.9375 13.25 C-6.70673828 13.23646484 -6.70673828 13.23646484 -8.51171875 13.22265625 C-9.41535156 13.21105469 -10.31898438 13.19945312 -11.25 13.1875 C-11.35824843 11.5848218 -11.43570645 9.98004252 -11.5 8.375 C-11.54640625 7.48167969 -11.5928125 6.58835937 -11.640625 5.66796875 C-11.25 3.1875 -11.25 3.1875 -9.6875 1.375 C-6.34814436 -0.25186557 -3.69465231 -0.10262923 0 0 Z " fill="#DB3123" transform="translate(195.25,320.8125)"/>
<path d="M0 0 C0.70189453 0.01353516 1.40378906 0.02707031 2.12695312 0.04101562 C3.85579829 0.07629818 5.58424765 0.13010417 7.3125 0.1875 C7.39381463 1.62405854 7.45183559 3.0619483 7.5 4.5 C7.55220703 5.70076172 7.55220703 5.70076172 7.60546875 6.92578125 C7.3125 9.1875 7.3125 9.1875 5.98828125 10.91796875 C2.54929604 13.52326057 -0.73083991 13.29456086 -4.875 13.25 C-6.50501953 13.23646484 -6.50501953 13.23646484 -8.16796875 13.22265625 C-8.99941406 13.21105469 -9.83085938 13.19945312 -10.6875 13.1875 C-10.76871924 11.58417209 -10.82679134 9.97965974 -10.875 8.375 C-10.90980469 7.48167969 -10.94460938 6.58835937 -10.98046875 5.66796875 C-10.6875 3.1875 -10.6875 3.1875 -9.65625 1.375 C-6.59204307 -0.4732518 -3.46162341 -0.12605351 0 0 Z " fill="#DB3224" transform="translate(591.6875,294.8125)"/>
<path d="M0 0 C0.70189453 0.01353516 1.40378906 0.02707031 2.12695312 0.04101562 C3.85579829 0.07629818 5.58424765 0.13010417 7.3125 0.1875 C7.39381463 1.62405854 7.45183559 3.0619483 7.5 4.5 C7.55220703 5.70076172 7.55220703 5.70076172 7.60546875 6.92578125 C7.3125 9.1875 7.3125 9.1875 5.98828125 10.91796875 C2.54929604 13.52326057 -0.73083991 13.29456086 -4.875 13.25 C-6.50501953 13.23646484 -6.50501953 13.23646484 -8.16796875 13.22265625 C-8.99941406 13.21105469 -9.83085937 13.19945312 -10.6875 13.1875 C-10.76871924 11.58417209 -10.82679134 9.97965974 -10.875 8.375 C-10.90980469 7.48167969 -10.94460938 6.58835937 -10.98046875 5.66796875 C-10.6875 3.1875 -10.6875 3.1875 -9.65625 1.375 C-6.59204307 -0.4732518 -3.46162341 -0.12605351 0 0 Z " fill="#DB3224" transform="translate(496.6875,294.8125)"/>
</svg>
